<svg width="20" height="20" viewBox="0 0 20 20" fill="none" xmlns="http://www.w3.org/2000/svg">
  <path d="M19 0H1C0.734784 0 0.48043 0.105357 0.292893 0.292893C0.105357 0.48043 0 0.734784 0 1V19C0 19.2652 0.105357 19.5196 0.292893 19.7071C0.48043 19.8946 0.734784 20 1 20H19C19.2652 20 19.5196 19.8946 19.7071 19.7071C19.8946 19.5196 20 19.2652 20 19V1C20 0.734784 19.8946 0.48043 19.7071 0.292893C19.5196 0.105357 19.2652 0 19 0ZM18 18H2V2H18V18ZM5 12.79H7V14.79C7 15.0552 7.10536 15.3096 7.29289 15.4971C7.48043 15.6846 7.73478 15.79 8 15.79H12C12.2652 15.79 12.5196 15.6846 12.7071 15.4971C12.8946 15.3096 13 15.0552 13 14.79V12.79H15C15.2652 12.79 15.5196 12.6846 15.7071 12.4971C15.8946 12.3096 16 12.0552 16 11.79V7.79C16 7.52478 15.8946 7.27043 15.7071 7.08289C15.5196 6.89536 15.2652 6.79 15 6.79H13V4.79C13 4.52478 12.8946 4.27043 12.7071 4.08289C12.5196 3.89536 12.2652 3.79 12 3.79H8C7.73478 3.79 7.48043 3.89536 7.29289 4.08289C7.10536 4.27043 7 4.52478 7 4.79V6.79H5C4.73478 6.79 4.48043 6.89536 4.29289 7.08289C4.10536 7.27043 4 7.52478 4 7.79V11.79C4 12.0552 4.10536 12.3096 4.29289 12.4971C4.48043 12.6846 4.73478 12.79 5 12.79ZM6 8.79H8C8.26522 8.79 8.51957 8.68464 8.70711 8.49711C8.89464 8.30957 9 8.05522 9 7.79V5.79H11V7.79C11 8.05522 11.1054 8.30957 11.2929 8.49711C11.4804 8.68464 11.7348 8.79 12 8.79H14V10.79H12C11.7348 10.79 11.4804 10.8954 11.2929 11.0829C11.1054 11.2704 11 11.5248 11 11.79V13.79H9V11.79C9 11.5248 8.89464 11.2704 8.70711 11.0829C8.51957 10.8954 8.26522 10.79 8 10.79H6V8.79Z" fill="inherit"/>
</svg>
