<svg width="18" height="23" viewBox="0 0 18 23" fill="none" xmlns="http://www.w3.org/2000/svg">
  <path d="M15.75 12.5775V9C15.7484 7.40601 15.1827 5.86403 14.1532 4.64712C13.1237 3.43022 11.6967 2.61691 10.125 2.35125V1.125C10.125 0.826631 10.0065 0.540483 9.7955 0.329505C9.58452 0.118526 9.29837 0 9 0C8.70163 0 8.41548 0.118526 8.2045 0.329505C7.99353 0.540483 7.875 0.826631 7.875 1.125V2.35125C6.30331 2.61691 4.87634 3.43022 3.84681 4.64712C2.81728 5.86403 2.25162 7.40601 2.25 9V12.5775C1.59351 12.8096 1.02487 13.2391 0.622056 13.8071C0.219238 14.375 0.00195695 15.0537 0 15.75V18C0 18.2984 0.118527 18.5845 0.329505 18.7955C0.540484 19.0065 0.826631 19.125 1.125 19.125H4.6575C4.91657 20.0783 5.48213 20.9198 6.26692 21.5198C7.05172 22.1198 8.01213 22.4449 9 22.4449C9.98787 22.4449 10.9483 22.1198 11.7331 21.5198C12.5179 20.9198 13.0834 20.0783 13.3425 19.125H16.875C17.1734 19.125 17.4595 19.0065 17.6705 18.7955C17.8815 18.5845 18 18.2984 18 18V15.75C17.998 15.0537 17.7808 14.375 17.3779 13.8071C16.9751 13.2391 16.4065 12.8096 15.75 12.5775ZM4.5 9C4.5 7.80653 4.97411 6.66193 5.81802 5.81802C6.66193 4.97411 7.80653 4.5 9 4.5C10.1935 4.5 11.3381 4.97411 12.182 5.81802C13.0259 6.66193 13.5 7.80653 13.5 9V12.375H4.5V9ZM9 20.25C8.60734 20.2476 8.22215 20.1425 7.88269 19.9452C7.54323 19.7478 7.26132 19.4651 7.065 19.125H10.935C10.7387 19.4651 10.4568 19.7478 10.1173 19.9452C9.77785 20.1425 9.39266 20.2476 9 20.25ZM15.75 16.875H2.25V15.75C2.25 15.4516 2.36853 15.1655 2.5795 14.9545C2.79048 14.7435 3.07663 14.625 3.375 14.625H14.625C14.9234 14.625 15.2095 14.7435 15.4205 14.9545C15.6315 15.1655 15.75 15.4516 15.75 15.75V16.875Z" fill="#717171"/>
</svg>
