<svg width="18" height="20" viewBox="0 0 18 20" fill="none" xmlns="http://www.w3.org/2000/svg">
  <path d="M9 16.2C9.178 16.2 9.35201 16.1472 9.50001 16.0483C9.64802 15.9494 9.76337 15.8089 9.83149 15.6444C9.89961 15.48 9.91743 15.299 9.88271 15.1244C9.84798 14.9498 9.76226 14.7895 9.6364 14.6636C9.51053 14.5377 9.35016 14.452 9.17558 14.4173C9.001 14.3826 8.82004 14.4004 8.65558 14.4685C8.49113 14.5366 8.35057 14.652 8.25168 14.8C8.15278 14.948 8.1 15.122 8.1 15.3C8.1 15.5387 8.19482 15.7676 8.3636 15.9364C8.53239 16.1052 8.7613 16.2 9 16.2ZM13.5 16.2C13.678 16.2 13.852 16.1472 14 16.0483C14.148 15.9494 14.2634 15.8089 14.3315 15.6444C14.3996 15.48 14.4174 15.299 14.3827 15.1244C14.348 14.9498 14.2623 14.7895 14.1364 14.6636C14.0105 14.5377 13.8502 14.452 13.6756 14.4173C13.501 14.3826 13.32 14.4004 13.1556 14.4685C12.9911 14.5366 12.8506 14.652 12.7517 14.8C12.6528 14.948 12.6 15.122 12.6 15.3C12.6 15.5387 12.6948 15.7676 12.8636 15.9364C13.0324 16.1052 13.2613 16.2 13.5 16.2ZM13.5 12.6C13.678 12.6 13.852 12.5472 14 12.4483C14.148 12.3494 14.2634 12.2089 14.3315 12.0444C14.3996 11.88 14.4174 11.699 14.3827 11.5244C14.348 11.3498 14.2623 11.1895 14.1364 11.0636C14.0105 10.9377 13.8502 10.852 13.6756 10.8173C13.501 10.7826 13.32 10.8004 13.1556 10.8685C12.9911 10.9366 12.8506 11.052 12.7517 11.2C12.6528 11.348 12.6 11.522 12.6 11.7C12.6 11.9387 12.6948 12.1676 12.8636 12.3364C13.0324 12.5052 13.2613 12.6 13.5 12.6ZM9 12.6C9.178 12.6 9.35201 12.5472 9.50001 12.4483C9.64802 12.3494 9.76337 12.2089 9.83149 12.0444C9.89961 11.88 9.91743 11.699 9.88271 11.5244C9.84798 11.3498 9.76226 11.1895 9.6364 11.0636C9.51053 10.9377 9.35016 10.852 9.17558 10.8173C9.001 10.7826 8.82004 10.8004 8.65558 10.8685C8.49113 10.9366 8.35057 11.052 8.25168 11.2C8.15278 11.348 8.1 11.522 8.1 11.7C8.1 11.9387 8.19482 12.1676 8.3636 12.3364C8.53239 12.5052 8.7613 12.6 9 12.6ZM15.3 1.8H14.4V0.9C14.4 0.661305 14.3052 0.432387 14.1364 0.263604C13.9676 0.0948211 13.7387 0 13.5 0C13.2613 0 13.0324 0.0948211 12.8636 0.263604C12.6948 0.432387 12.6 0.661305 12.6 0.9V1.8H5.4V0.9C5.4 0.661305 5.30518 0.432387 5.1364 0.263604C4.96761 0.0948211 4.73869 0 4.5 0C4.2613 0 4.03239 0.0948211 3.8636 0.263604C3.69482 0.432387 3.6 0.661305 3.6 0.9V1.8H2.7C1.98392 1.8 1.29716 2.08446 0.790812 2.59081C0.284464 3.09716 0 3.78392 0 4.5V17.1C0 17.8161 0.284464 18.5028 0.790812 19.0092C1.29716 19.5155 1.98392 19.8 2.7 19.8H15.3C16.0161 19.8 16.7028 19.5155 17.2092 19.0092C17.7155 18.5028 18 17.8161 18 17.1V4.5C18 3.78392 17.7155 3.09716 17.2092 2.59081C16.7028 2.08446 16.0161 1.8 15.3 1.8ZM16.2 17.1C16.2 17.3387 16.1052 17.5676 15.9364 17.7364C15.7676 17.9052 15.5387 18 15.3 18H2.7C2.46131 18 2.23239 17.9052 2.0636 17.7364C1.89482 17.5676 1.8 17.3387 1.8 17.1V9H16.2V17.1ZM16.2 7.2H1.8V4.5C1.8 4.2613 1.89482 4.03239 2.0636 3.8636C2.23239 3.69482 2.46131 3.6 2.7 3.6H3.6V4.5C3.6 4.73869 3.69482 4.96761 3.8636 5.1364C4.03239 5.30518 4.2613 5.4 4.5 5.4C4.73869 5.4 4.96761 5.30518 5.1364 5.1364C5.30518 4.96761 5.4 4.73869 5.4 4.5V3.6H12.6V4.5C12.6 4.73869 12.6948 4.96761 12.8636 5.1364C13.0324 5.30518 13.2613 5.4 13.5 5.4C13.7387 5.4 13.9676 5.30518 14.1364 5.1364C14.3052 4.96761 14.4 4.73869 14.4 4.5V3.6H15.3C15.5387 3.6 15.7676 3.69482 15.9364 3.8636C16.1052 4.03239 16.2 4.2613 16.2 4.5V7.2ZM4.5 12.6C4.678 12.6 4.85201 12.5472 5.00001 12.4483C5.14802 12.3494 5.26337 12.2089 5.33149 12.0444C5.39961 11.88 5.41743 11.699 5.38271 11.5244C5.34798 11.3498 5.26226 11.1895 5.1364 11.0636C5.01053 10.9377 4.85016 10.852 4.67558 10.8173C4.501 10.7826 4.32004 10.8004 4.15558 10.8685C3.99113 10.9366 3.85057 11.052 3.75168 11.2C3.65278 11.348 3.6 11.522 3.6 11.7C3.6 11.9387 3.69482 12.1676 3.8636 12.3364C4.03239 12.5052 4.2613 12.6 4.5 12.6ZM4.5 16.2C4.678 16.2 4.85201 16.1472 5.00001 16.0483C5.14802 15.9494 5.26337 15.8089 5.33149 15.6444C5.39961 15.48 5.41743 15.299 5.38271 15.1244C5.34798 14.9498 5.26226 14.7895 5.1364 14.6636C5.01053 14.5377 4.85016 14.452 4.67558 14.4173C4.501 14.3826 4.32004 14.4004 4.15558 14.4685C3.99113 14.5366 3.85057 14.652 3.75168 14.8C3.65278 14.948 3.6 15.122 3.6 15.3C3.6 15.5387 3.69482 15.7676 3.8636 15.9364C4.03239 16.1052 4.2613 16.2 4.5 16.2Z" fill="inherit"/>
</svg>
