<svg width="17" height="13" viewBox="0 0 17 13" fill="none" xmlns="http://www.w3.org/2000/svg">
  <path d="M16.9291 6.175C15.2127 2.36438 11.9838 0 8.5 0C5.01621 0 1.78734 2.36438 0.0709373 6.175C0.0241498 6.27751 0 6.38815 0 6.5C0 6.61185 0.0241498 6.72249 0.0709373 6.825C1.78734 10.6356 5.01621 13 8.5 13C11.9838 13 15.2127 10.6356 16.9291 6.825C16.9759 6.72249 17 6.61185 17 6.5C17 6.38815 16.9759 6.27751 16.9291 6.175ZM8.5 11.375C5.80644 11.375 3.25733 9.51437 1.78734 6.5C3.25733 3.48563 5.80644 1.625 8.5 1.625C11.1936 1.625 13.7427 3.48563 15.2127 6.5C13.7427 9.51437 11.1936 11.375 8.5 11.375ZM8.5 3.25C7.82778 3.25 7.17065 3.44061 6.61172 3.79772C6.05279 4.15484 5.61715 4.66242 5.3599 5.25628C5.10266 5.85014 5.03535 6.50361 5.16649 7.13404C5.29764 7.76448 5.62134 8.34358 6.09667 8.7981C6.57201 9.25262 7.17762 9.56215 7.83692 9.68755C8.49623 9.81295 9.17962 9.74859 9.80067 9.50261C10.4217 9.25662 10.9525 8.84006 11.326 8.3056C11.6995 7.77114 11.8988 7.14279 11.8988 6.5C11.8988 5.63805 11.5407 4.8114 10.9033 4.2019C10.2659 3.59241 9.40142 3.25 8.5 3.25ZM8.5 8.125C8.16389 8.125 7.83533 8.0297 7.55586 7.85114C7.27639 7.67258 7.05858 7.41879 6.92995 7.12186C6.80133 6.82493 6.76767 6.4982 6.83325 6.18298C6.89882 5.86776 7.06067 5.57821 7.29834 5.35095C7.536 5.12369 7.83881 4.96892 8.16846 4.90622C8.49811 4.84352 8.83981 4.8757 9.15034 4.9987C9.46086 5.12169 9.72627 5.32997 9.91301 5.5972C10.0997 5.86443 10.1994 6.17861 10.1994 6.5C10.1994 6.93098 10.0204 7.3443 9.70166 7.64905C9.38296 7.95379 8.95071 8.125 8.5 8.125Z" fill="#7891A9"/>
</svg>
