<svg width="22" height="17" viewBox="0 0 22 17" fill="none" xmlns="http://www.w3.org/2000/svg">
  <path d="M0 9V13C0 13.2652 0.105357 13.5196 0.292893 13.7071C0.48043 13.8946 0.734784 14 1 14H2C2 14.7956 2.31607 15.5587 2.87868 16.1213C3.44129 16.6839 4.20435 17 5 17C5.79565 17 6.55871 16.6839 7.12132 16.1213C7.68393 15.5587 8 14.7956 8 14H14C14 14.7956 14.3161 15.5587 14.8787 16.1213C15.4413 16.6839 16.2044 17 17 17C17.7956 17 18.5587 16.6839 19.1213 16.1213C19.6839 15.5587 20 14.7956 20 14H21C21.2652 14 21.5196 13.8946 21.7071 13.7071C21.8946 13.5196 22 13.2652 22 13V3C22 2.20435 21.6839 1.44129 21.1213 0.87868C20.5587 0.316071 19.7956 0 19 0H7.44C6.81155 0.00117571 6.19933 0.199683 5.68977 0.567505C5.1802 0.935328 4.79901 1.45389 4.6 2.05L3.16 6.36L0.45 8.17C0.312439 8.26059 0.199384 8.38375 0.12088 8.52855C0.0423751 8.67335 0.000852118 8.83529 0 9ZM20 6H18V2H19C19.2652 2 19.5196 2.10536 19.7071 2.29289C19.8946 2.48043 20 2.73478 20 3V6ZM16 14C16 13.8022 16.0586 13.6089 16.1685 13.4444C16.2784 13.28 16.4346 13.1518 16.6173 13.0761C16.8 13.0004 17.0011 12.9806 17.1951 13.0192C17.3891 13.0578 17.5673 13.153 17.7071 13.2929C17.847 13.4327 17.9422 13.6109 17.9808 13.8049C18.0194 13.9989 17.9996 14.2 17.9239 14.3827C17.8482 14.5654 17.72 14.7216 17.5556 14.8315C17.3911 14.9414 17.1978 15 17 15C16.7348 15 16.4804 14.8946 16.2929 14.7071C16.1054 14.5196 16 14.2652 16 14ZM14 8H20V12H19.22C18.9388 11.6906 18.5961 11.4435 18.2138 11.2743C17.8315 11.1052 17.418 11.0178 17 11.0178C16.582 11.0178 16.1685 11.1052 15.7862 11.2743C15.4039 11.4435 15.0612 11.6906 14.78 12H14V8ZM14 2H16V6H14V2ZM10 8H12V12H10V8ZM10 2H12V6H10V2ZM8 6H5.39L6.49 2.68C6.55709 2.48138 6.6849 2.30887 6.85537 2.18684C7.02584 2.06482 7.23036 1.99946 7.44 2H8V6ZM4 14C4 13.8022 4.05865 13.6089 4.16853 13.4444C4.27841 13.28 4.43459 13.1518 4.61732 13.0761C4.80004 13.0004 5.00111 12.9806 5.19509 13.0192C5.38907 13.0578 5.56725 13.153 5.70711 13.2929C5.84696 13.4327 5.9422 13.6109 5.98079 13.8049C6.01937 13.9989 5.99957 14.2 5.92388 14.3827C5.84819 14.5654 5.72002 14.7216 5.55557 14.8315C5.39112 14.9414 5.19778 15 5 15C4.73478 15 4.48043 14.8946 4.29289 14.7071C4.10536 14.5196 4 14.2652 4 14ZM2 9.5L4.3 8H8V12H7.22C6.93882 11.6906 6.59609 11.4435 6.21378 11.2743C5.83148 11.1052 5.41805 11.0178 5 11.0178C4.58195 11.0178 4.16852 11.1052 3.78622 11.2743C3.40391 11.4435 3.06118 11.6906 2.78 12H2V9.5Z" fill="inherit"/>
</svg>
